<svg width="365" height="121" viewBox="0 0 365 121" fill="none" xmlns="http://www.w3.org/2000/svg">
<path d="M4.1625 16.675V14.5875H2.0875V12.5H0V10.425H2.0875V8.33752H4.1625V6.25002H8.3375V8.33752H6.25V10.425H16.6625V12.5H6.25V14.5875H8.3375V16.675H4.1625ZM51.6383 16.675V14.5875H53.7133V12.5H43.3008V10.425H53.7133V8.33752H51.6383V6.25002H55.8008V8.33752H57.8883V10.425H59.9633V12.5H57.8883V14.5875H55.8008V16.675H51.6383ZM2.0875 70.8375V64.5875H4.1625V62.5H6.25V60.425H8.3375V58.3375H10.4125V54.175H2.0875V52.0875H14.5875V58.3375H12.5V60.425H10.4125V62.5H8.3375V64.5875H6.25V68.75H14.5875V70.8375H2.0875ZM35.3883 70.8375V66.675H37.4633V62.5H39.5508V60.425H37.4633V56.25H35.3883V52.0875H39.5508V56.25H43.7133V52.0875H47.8883V56.25H45.8008V60.425H43.7133V62.5H45.8008V66.675H47.8883V70.8375H43.7133V66.675H39.5508V70.8375H35.3883ZM6.25 120.838V102.088H14.5875V104.175H10.4125V118.75H14.5875V120.838H6.25ZM18.7379 120.838V102.088H31.2379V104.175H22.9004V110.425H29.1504V112.5H22.9004V118.75H31.2379V120.838H18.7379ZM37.4633 120.838V118.75H35.3883V114.588H39.5508V118.75H43.7133V112.5H37.4633V110.425H35.3883V104.175H37.4633V102.088H45.8008V104.175H47.8883V108.338H43.7133V104.175H39.5508V110.425H45.8008V112.5H47.8883V118.75H45.8008V120.838H37.4633ZM54.1137 120.838V118.75H52.0387V104.175H54.1137V102.088H62.4512V104.175H64.5387V108.338H60.3637V104.175H56.2012V118.75H60.3637V114.588H64.5387V118.75H62.4512V120.838H54.1137ZM68.6891 120.838V118.75H72.8516V104.175H68.6891V102.088H77.0141V120.838H68.6891Z" fill="#FFEA00"/>
<path d="M104.514 12.5V10.425H112.852V12.5H104.514ZM135.74 20.8375V2.08752H139.902V6.25002H141.99V10.425H139.902V20.8375H135.74ZM144.065 20.8375V14.5875H141.99V10.425H144.065V2.08752H148.24V20.8375H144.065ZM160.715 18.75V14.5875H156.553V18.75H160.715ZM154.465 20.8375V18.75H152.39V14.5875H154.465V12.5H160.715V8.33752H156.553V10.425H152.39V8.33752H154.465V6.25002H162.803V8.33752H164.89V20.8375H154.465ZM173.203 20.8375V16.675H171.116V12.5H169.041V6.25002H173.203V12.5H177.366V6.25002H181.541V12.5H179.453V16.675H177.366V20.8375H173.203ZM185.691 20.8375V18.75H189.854V8.33752H185.691V6.25002H194.016V18.75H198.191V20.8375H185.691ZM189.854 4.17502V2.37226e-05H194.016V4.17502H189.854ZM210.666 18.75V8.33752H206.504V18.75H210.666ZM204.416 27.0875V25H202.341V22.925H206.504V25H210.666V20.8375H204.416V18.75H202.341V8.33752H204.416V6.25002H214.841V25H212.754V27.0875H204.416ZM227.317 18.75V14.5875H223.154V18.75H227.317ZM221.067 20.8375V18.75H218.992V14.5875H221.067V12.5H227.317V8.33752H223.154V10.425H218.992V8.33752H221.067V6.25002H229.404V8.33752H231.492V20.8375H221.067ZM241.892 20.8375V18.75H239.805V8.33752H235.642V6.25002H239.805V2.08752H243.967V6.25002H248.142V8.33752H243.967V18.75H248.142V20.8375H241.892ZM252.293 20.8375V18.75H256.455V8.33752H252.293V6.25002H260.618V18.75H264.793V20.8375H252.293ZM256.455 4.17502V2.37226e-05H260.618V4.17502H256.455ZM277.268 18.75V8.33752H273.105V18.75H277.268ZM271.018 20.8375V18.75H268.943V8.33752H271.018V6.25002H279.355V8.33752H281.443V18.75H279.355V20.8375H271.018ZM285.593 20.8375V6.25002H296.006V8.33752H298.093V20.8375H293.918V8.33752H289.756V20.8375H285.593ZM18.7379 72.925V68.75H20.8129V64.5875H22.9004V60.425H24.9879V56.25H27.0629V52.0875H31.2379V56.25H29.1504V60.425H27.0629V64.5875H24.9879V68.75H22.9004V72.925H18.7379ZM104.014 62.5V60.425H112.352V62.5H104.014ZM137.315 70.8375V68.75H135.24V54.175H137.315V52.0875H145.652V54.175H147.74V58.3375H143.565V54.175H139.402V68.75H143.565V64.5875H147.74V68.75H145.652V70.8375H137.315ZM160.215 68.75V58.3375H156.053V68.75H160.215ZM153.965 70.8375V68.75H151.89V58.3375H153.965V56.25H162.303V58.3375H164.39V68.75H162.303V70.8375H153.965ZM168.541 70.8375V56.25H178.953V58.3375H181.041V70.8375H176.866V58.3375H172.703V70.8375H168.541ZM189.354 70.8375V60.425H185.191V58.3375H189.354V54.175H191.441V52.0875H197.691V54.175H193.516V58.3375H197.691V60.425H193.516V70.8375H189.354ZM201.841 70.8375V68.75H206.004V58.3375H201.841V56.25H210.166V68.75H214.341V70.8375H201.841ZM206.004 54.175V50H210.166V54.175H206.004ZM218.492 70.8375V56.25H228.904V58.3375H230.992V62.5H226.817V58.3375H222.654V70.8375H218.492ZM235.142 70.8375V56.25H241.392V58.3375H243.467V56.25H247.642V58.3375H249.717V70.8375H245.555V60.425H243.467V68.75H241.392V60.425H239.305V70.8375H235.142ZM251.793 72.925V68.75H253.868V64.5875H255.955V60.425H258.043V56.25H260.118V52.0875H264.293V56.25H262.205V60.425H260.118V64.5875H258.043V68.75H255.955V72.925H251.793ZM270.518 70.8375V68.75H268.443V54.175H270.518V52.0875H278.855V54.175H280.943V58.3375H276.768V54.175H272.605V68.75H276.768V64.5875H280.943V68.75H278.855V70.8375H270.518ZM293.418 68.75V64.5875H289.256V68.75H293.418ZM287.168 70.8375V68.75H285.093V64.5875H287.168V62.5H293.418V58.3375H289.256V60.425H285.093V58.3375H287.168V56.25H295.506V58.3375H297.593V70.8375H287.168ZM301.744 70.8375V56.25H312.156V58.3375H314.244V70.8375H310.069V58.3375H305.906V70.8375H301.744ZM320.469 70.8375V68.75H318.394V58.3375H320.469V56.25H328.807V58.3375H330.894V62.5H326.719V58.3375H322.557V68.75H326.719V64.5875H330.894V68.75H328.807V70.8375H320.469ZM343.37 62.5V58.3375H339.207V62.5H343.37ZM337.12 70.8375V68.75H335.045V58.3375H337.12V56.25H345.457V58.3375H347.545V64.5875H339.207V68.75H343.37V66.675H347.545V68.75H345.457V70.8375H337.12ZM351.695 70.8375V68.75H355.857V54.175H351.695V52.0875H360.02V68.75H364.195V70.8375H351.695ZM104.065 112.5V110.425H112.402V112.5H104.065ZM135.291 120.838V102.088H147.791V104.175H139.453V110.425H145.703V112.5H139.453V118.75H147.791V120.838H135.291ZM151.941 120.838V116.675H154.016V114.588H156.104V112.5H154.016V110.425H151.941V106.25H156.104V110.425H160.266V106.25H164.441V110.425H162.354V112.5H160.266V114.588H162.354V116.675H164.441V120.838H160.266V116.675H156.104V120.838H151.941ZM168.591 120.838V118.75H172.754V108.338H168.591V106.25H176.916V118.75H181.091V120.838H168.591ZM172.754 104.175V100H176.916V104.175H172.754ZM191.492 120.838V118.75H189.404V108.338H185.242V106.25H189.404V102.088H193.567V106.25H197.742V108.338H193.567V118.75H197.742V120.838H191.492ZM220.618 120.838V118.75H218.543V104.175H220.618V102.088H228.955V104.175H231.043V108.338H226.868V104.175H222.705V118.75H226.868V112.5H224.793V110.425H231.043V118.75H228.955V120.838H220.618ZM243.518 118.75V114.588H239.355V118.75H243.518ZM237.268 120.838V118.75H235.193V114.588H237.268V112.5H243.518V108.338H239.355V110.425H235.193V108.338H237.268V106.25H245.605V108.338H247.693V120.838H237.268ZM251.843 120.838V106.25H258.093V108.338H260.168V106.25H264.343V108.338H266.418V120.838H262.256V110.425H260.168V118.75H258.093V110.425H256.006V120.838H251.843ZM276.819 112.5V108.338H272.656V112.5H276.819ZM270.569 120.838V118.75H268.494V108.338H270.569V106.25H278.906V108.338H280.994V114.588H272.656V118.75H276.819V116.675H280.994V118.75H278.906V120.838H270.569Z" fill="white"/>
</svg>
