<svg width="314" height="24" viewBox="0 0 314 24" fill="none" xmlns="http://www.w3.org/2000/svg">
<path d="M1.998 14.002V13H1.002V11.998H0V11.002H1.002V10H1.998V8.998H4.002V10H3V11.002H7.998V11.998H3V13H4.002V14.002H1.998ZM24.7864 14.002V13H25.7824V11.998H20.7844V11.002H25.7824V10H24.7864V8.998H26.7844V10H27.7864V11.002H28.7824V11.998H27.7864V13H26.7844V14.002H24.7864ZM149.661 16V13H150.657V11.998H151.659V11.002H152.661V10H153.657V8.002H149.661V7H155.661V10H154.659V11.002H153.657V11.998H152.661V13H151.659V14.998H155.661V16H149.661ZM165.646 16V14.002H166.642V11.998H167.644V11.002H166.642V8.998H165.646V7H167.644V8.998H169.642V7H171.646V8.998H170.644V11.002H169.642V11.998H170.644V14.002H171.646V16H169.642V14.002H167.644V16H165.646Z" fill="#999242"/>
<path d="M38.7667 11.998V11.002H42.7687V11.998H38.7667ZM53.7551 16V7H55.7531V8.998H56.7551V11.002H55.7531V16H53.7551ZM57.7511 16V13H56.7551V11.002H57.7511V7H59.7551V16H57.7511ZM65.7433 14.998V13H63.7453V14.998H65.7433ZM62.7433 16V14.998H61.7473V13H62.7433V11.998H65.7433V10H63.7453V11.002H61.7473V10H62.7433V8.998H66.7453V10H67.7473V16H62.7433ZM71.7375 16V14.002H70.7355V11.998H69.7395V8.998H71.7375V11.998H73.7355V8.998H75.7395V11.998H74.7375V14.002H73.7355V16H71.7375ZM77.7317 16V14.998H79.7297V10H77.7317V8.998H81.7277V14.998H83.7317V16H77.7317ZM79.7297 8.002V5.998H81.7277V8.002H79.7297ZM89.7199 14.998V10H87.7219V14.998H89.7199ZM86.7199 19V17.998H85.7239V17.002H87.7219V17.998H89.7199V16H86.7199V14.998H85.7239V10H86.7199V8.998H91.7239V17.998H90.7219V19H86.7199ZM97.7121 14.998V13H95.7141V14.998H97.7121ZM94.7121 16V14.998H93.7161V13H94.7121V11.998H97.7121V10H95.7141V11.002H93.7161V10H94.7121V8.998H98.7141V10H99.7161V16H94.7121ZM104.708 16V14.998H103.706V10H101.708V8.998H103.706V7H105.704V8.998H107.708V10H105.704V14.998H107.708V16H104.708ZM109.7 16V14.998H111.698V10H109.7V8.998H113.696V14.998H115.7V16H109.7ZM111.698 8.002V5.998H113.696V8.002H111.698ZM121.689 14.998V10H119.691V14.998H121.689ZM118.689 16V14.998H117.693V10H118.689V8.998H122.691V10H123.693V14.998H122.691V16H118.689ZM125.685 16V8.998H130.683V10H131.685V16H129.681V10H127.683V16H125.685ZM157.654 17.002V14.998H158.65V13H159.652V11.002H160.654V8.998H161.65V7H163.654V8.998H162.652V11.002H161.65V13H160.654V14.998H159.652V17.002H157.654ZM187.426 11.998V11.002H191.428V11.998H187.426ZM203.411 16V14.998H202.415V8.002H203.411V7H207.413V8.002H208.415V10H206.411V8.002H204.413V14.998H206.411V13H208.415V14.998H207.413V16H203.411ZM214.403 14.998V10H212.405V14.998H214.403ZM211.403 16V14.998H210.407V10H211.403V8.998H215.405V10H216.407V14.998H215.405V16H211.403ZM218.399 16V8.998H223.397V10H224.399V16H222.395V10H220.397V16H218.399ZM228.389 16V11.002H226.391V10H228.389V8.002H229.391V7H232.391V8.002H230.387V10H232.391V11.002H230.387V16H228.389ZM234.383 16V14.998H236.381V10H234.383V8.998H238.379V14.998H240.383V16H234.383ZM236.381 8.002V5.998H238.379V8.002H236.381ZM242.375 16V8.998H247.373V10H248.375V11.998H246.371V10H244.373V16H242.375ZM250.368 16V8.998H253.368V10H254.364V8.998H256.368V10H257.364V16H255.366V11.002H254.364V14.998H253.368V11.002H252.366V16H250.368ZM258.36 17.002V14.998H259.356V13H260.358V11.002H261.36V8.998H262.356V7H264.36V8.998H263.358V11.002H262.356V13H261.36V14.998H260.358V17.002H258.36ZM267.348 16V14.998H266.352V8.002H267.348V7H271.35V8.002H272.352V10H270.348V8.002H268.35V14.998H270.348V13H272.352V14.998H271.35V16H267.348ZM278.34 14.998V13H276.342V14.998H278.34ZM275.34 16V14.998H274.344V13H275.34V11.998H278.34V10H276.342V11.002H274.344V10H275.34V8.998H279.342V10H280.344V16H275.34ZM282.336 16V8.998H287.334V10H288.336V16H286.332V10H284.334V16H282.336ZM291.325 16V14.998H290.329V10H291.325V8.998H295.327V10H296.329V11.998H294.325V10H292.327V14.998H294.325V13H296.329V14.998H295.327V16H291.325ZM302.317 11.998V10H300.319V11.998H302.317ZM299.317 16V14.998H298.321V10H299.317V8.998H303.319V10H304.321V13H300.319V14.998H302.317V14.002H304.321V14.998H303.319V16H299.317ZM306.313 16V14.998H308.311V8.002H306.313V7H310.309V14.998H312.313V16H306.313Z" fill="#7D7D7D"/>
<path d="M17.0528 22.002H16.0508V22.998H15.0488V24H14.0528V22.998H13.0508V22.002H12.0488V19.998H13.0508V21H14.0528V16.002H15.0488V21H16.0508V19.998H17.0528V22.002ZM17.0528 4.01362H16.0508V3.01762H15.0488V8.01562H14.0528V3.01762H13.0508V4.01362H12.0488V2.01562H13.0508V1.01362H14.0528V0.0176246H15.0488V1.01362H16.0508V2.01562H17.0528V4.01362Z" fill="#999242"/>
</svg>
