<svg width="278" height="90" viewBox="0 0 278 90" fill="none" xmlns="http://www.w3.org/2000/svg">
<rect x="76.8927" y="14.4331" width="13.9324" height="13.9324" fill="#FF0000"/>
<rect x="187.286" y="10.8787" width="17.4868" height="17.4868" fill="#FF0000"/>
<path d="M5.99365 36V20.0088H0V10.0112H5.99365V0.00146484H15.9912V10.0112H21.9971V20.0088H15.9912V36H5.99365ZM29.9683 36V10.0112H49.9756V22.0107H43.9697V16.0049H37.9761V36H29.9683ZM55.957 36V10.0112H63.9526V36H55.957ZM83.96 28.0044V26.0024H85.9619V24.0005H87.9639V18.0068H83.96V20.0088H81.9702V18.0068H77.9663V24.0005H79.9683V26.0024H81.9702V28.0044H83.96ZM69.9707 45.9976V10.0112H93.9697V36H77.9663V45.9976H69.9707ZM99.9512 36V0.00146484H107.947V36H99.9512ZM113.965 36V10.0112H135.962V22.0107H121.96V28.0044H135.962V36H113.965ZM153.955 36V0.00146484H161.951V10.0112H177.954V36H153.955ZM197.925 26.0024V24.0005H199.927V22.0107H201.929V16.0049H197.925V18.0068H195.935V16.0049H191.931V22.0107H193.933V24.0005H195.935V26.0024H197.925ZM183.936 36V10.0112H209.924V36H199.927V30.0063H193.933V36H183.936ZM231.909 36V26.0024H239.917V36H231.909ZM231.909 18.0068V10.0112H239.917V18.0068H231.909ZM215.918 36V0.00146484H223.914V18.0068H231.909V26.0024H223.914V36H215.918ZM261.89 24.0005V18.0068H255.896V24.0005H261.89ZM245.898 36V10.0112H271.887V36H261.89V30.0063H255.896V36H245.898Z" fill="white"/>
<path d="M54.663 74.9173V73.0803H52.837V60.2543H54.663V58.4173H62V60.2543H63.837V63.9173H60.163V60.2543H56.5V73.0803H60.163V69.4173H63.837V73.0803H62V74.9173H54.663ZM67.4893 74.9173V58.4173H71.1523V62.0803H76.6523V63.9173H78.4893V74.9173H74.8153V63.9173H71.1523V74.9173H67.4893ZM89.4677 73.0803V69.4173H85.8047V73.0803H89.4677ZM83.9677 74.9173V73.0803H82.1417V69.4173H83.9677V67.5803H89.4677V63.9173H85.8047V65.7543H82.1417V63.9173H83.9677V62.0803H91.3047V63.9173H93.1417V74.9173H83.9677ZM104.12 73.0803V63.9173H100.457V73.0803H104.12ZM96.794 80.4173V62.0803H105.957V63.9173H107.794V73.0803H105.957V74.9173H100.457V80.4173H96.794ZM116.946 74.9173V73.0803H115.109V63.9173H111.446V62.0803H115.109V58.4173H118.772V62.0803H122.446V63.9173H118.772V73.0803H122.446V74.9173H116.946ZM133.425 67.5803V63.9173H129.762V67.5803H133.425ZM127.925 74.9173V73.0803H126.099V63.9173H127.925V62.0803H135.262V63.9173H137.099V69.4173H129.762V73.0803H133.425V71.2543H137.099V73.0803H135.262V74.9173H127.925ZM140.751 74.9173V62.0803H149.914V63.9173H151.751V67.5803H148.077V63.9173H144.414V74.9173H140.751ZM171.882 74.9173V73.0803H170.056V69.4173H173.719V73.0803H177.382V67.5803H173.719V65.7543H177.382V60.2543H173.719V63.9173H170.056V60.2543H171.882V58.4173H179.219V60.2543H181.056V65.7543H179.219V67.5803H181.056V73.0803H179.219V74.9173H171.882ZM188.371 74.9173V71.2543H192.034V74.9173H188.371ZM188.371 65.7543V62.0803H192.034V65.7543H188.371ZM201.186 74.9173V73.0803H199.36V69.4173H203.023V73.0803H206.686V67.5803H199.36V58.4173H210.36V60.2543H203.023V65.7543H208.523V67.5803H210.36V73.0803H208.523V74.9173H201.186ZM217.676 74.9173V67.5803H219.513V63.9173H221.339V60.2543H214.013V58.4173H225.013V63.9173H223.176V67.5803H221.339V74.9173H217.676Z" fill="white"/>
</svg>
