<svg width="1900" height="84" viewBox="0 0 1900 84" fill="none" xmlns="http://www.w3.org/2000/svg">
<path d="M45.3939 40.0159V24.0451H25.1859V59.8981H65.602V4H4V79.9432H86.6249V4H168.924V79.9432H107.485V24.0451H148.39V59.8981H127.693V45.068" stroke="#E2D0B4" stroke-width="8"/>
<path d="M237.187 40.0159V24.0451H216.979V59.8981H257.395V4H195.793V79.9432H278.418V4H360.717V79.9432H299.278V24.0451H340.183V59.8981H319.486V45.068" stroke="#E2D0B4" stroke-width="8"/>
<path d="M428.98 40.0159V24.0451H408.772V59.8981H449.188V4H387.586V79.9432H470.211V4H552.51V79.9432H491.071V24.0451H531.976V59.8981H511.279V45.068" stroke="#E2D0B4" stroke-width="8"/>
<path d="M620.773 40.0159V24.0451H600.565V59.8981H640.981V4H579.379V79.9432H662.004V4H744.303V79.9432H682.864V24.0451H723.769V59.8981H703.072V45.068" stroke="#E2D0B4" stroke-width="8"/>
<path d="M812.566 40.0159V24.0451H792.358V59.8981H832.774V4H771.172V79.9432H853.797V4H936.096V79.9432H874.657V24.0451H915.562V59.8981H894.865V45.068" stroke="#E2D0B4" stroke-width="8"/>
<path d="M1004.36 40.0159V24.0451H984.151V59.8981H1024.57V4H962.965V79.9432H1045.59V4H1127.89V79.9432H1066.45V24.0451H1107.35V59.8981H1086.66V45.068" stroke="#E2D0B4" stroke-width="8"/>
<path d="M1196.15 40.0159V24.0451H1175.94V59.8981H1216.36V4H1154.76V79.9432H1237.38V4H1319.68V79.9432H1258.24V24.0451H1299.15V59.8981H1278.45V45.068" stroke="#E2D0B4" stroke-width="8"/>
<path d="M1387.95 40.0159V24.0451H1367.74V59.8981H1408.15V4H1346.55V79.9432H1429.18V4H1511.48V79.9432H1450.04V24.0451H1490.94V59.8981H1470.24V45.068" stroke="#E2D0B4" stroke-width="8"/>
<path d="M1579.74 40.0159V24.0451H1559.53V59.8981H1599.95V4H1538.34V79.9432H1620.97V4H1703.27V79.9432H1641.83V24.0451H1682.73V59.8981H1662.04V45.068" stroke="#E2D0B4" stroke-width="8"/>
<path d="M1771.53 40.0159V24.0451H1751.32V59.8981H1791.74V4H1730.14V79.9432H1812.76V4H1895.06V79.9432H1833.62V24.0451H1874.53V59.8981H1853.83V45.068" stroke="#E2D0B4" stroke-width="8"/>
</svg>
